<svg width="32" height="32" viewBox="0 0 32 32" fill="none" xmlns="http://www.w3.org/2000/svg">
<path d="M10.4334 17.3332L16.9668 23.8666C17.2334 24.1332 17.3614 24.4443 17.3508 24.7999C17.3401 25.1555 17.201 25.4666 16.9334 25.7332C16.6668 25.9777 16.3557 26.1057 16.0001 26.1172C15.6446 26.1288 15.3334 26.0008 15.0668 25.7332L6.26678 16.9332C6.13345 16.7999 6.03878 16.6555 5.98278 16.4999C5.92678 16.3443 5.89967 16.1777 5.90145 15.9999C5.90323 15.8221 5.93123 15.6555 5.98545 15.4999C6.03967 15.3443 6.13389 15.1999 6.26812 15.0666L15.0681 6.26657C15.3126 6.02212 15.6183 5.8999 15.9854 5.8999C16.3526 5.8999 16.669 6.02212 16.9348 6.26657C17.2014 6.53324 17.3348 6.85012 17.3348 7.21724C17.3348 7.58435 17.2014 7.90079 16.9348 8.16657L10.4334 14.6666H25.3335C25.7112 14.6666 26.0281 14.7946 26.2841 15.0506C26.5401 15.3066 26.6677 15.623 26.6668 15.9999C26.6659 16.3768 26.5379 16.6937 26.2828 16.9506C26.0277 17.2075 25.7112 17.335 25.3335 17.3332H10.4334Z" fill="black"/>
</svg>
