<svg width="25" height="25" viewBox="0 0 25 25" fill="none" xmlns="http://www.w3.org/2000/svg">
<path fill-rule="evenodd" clip-rule="evenodd" d="M12.9687 2.5C18.4917 2.5 22.9687 6.977 22.9687 12.5C22.9687 18.023 18.4917 22.5 12.9688 22.5C7.44575 22.5 2.96875 18.023 2.96875 12.5C2.96875 6.977 7.44575 2.5 12.9687 2.5ZM10.7617 15.793C10.5796 15.9816 10.4788 16.2342 10.4811 16.4964C10.4834 16.7586 10.5885 17.0094 10.7739 17.1948C10.9593 17.3802 11.2102 17.4854 11.4723 17.4877C11.7345 17.49 11.9871 17.3892 12.1757 17.207L16.1757 13.207C16.3632 13.0195 16.4685 12.7652 16.4685 12.5C16.4685 12.2348 16.3632 11.9805 16.1757 11.793L12.1757 7.793C11.9871 7.61084 11.7345 7.51005 11.4723 7.51232C11.2102 7.5146 10.9593 7.61977 10.7739 7.80518C10.5885 7.99059 10.4834 8.2414 10.4811 8.5036C10.4788 8.7658 10.5796 9.0184 10.7617 9.207L14.0548 12.5L10.7617 15.793Z" fill="#013221"/>
</svg>
