<svg width="14" height="14" viewBox="0 0 14 14" fill="none" xmlns="http://www.w3.org/2000/svg">
<g clip-path="url(#clip0_136_1964)">
<path d="M7.53953 11.9021C7.71329 11.6611 8.04493 11.5861 8.30781 11.7378C8.57074 11.8896 8.67187 12.2144 8.54999 12.4855L8.52255 12.5387C8.36819 12.8059 8.14624 13.0279 7.87903 13.1822C7.61175 13.3365 7.30825 13.4181 6.99965 13.4181C6.69099 13.4181 6.38761 13.3366 6.12028 13.1822C5.8863 13.0471 5.68704 12.8604 5.53746 12.6366L5.4762 12.5387L5.44872 12.4855C5.32687 12.2144 5.42802 11.8896 5.69089 11.7378C5.95378 11.586 6.28542 11.6611 6.45919 11.9021L6.49184 11.9525L6.53423 12.0166C6.58089 12.0774 6.63969 12.1286 6.70653 12.1672C6.79558 12.2185 6.89682 12.2456 6.99965 12.2456C7.10248 12.2456 7.20372 12.2186 7.29278 12.1672C7.38183 12.1158 7.45546 12.0415 7.50687 11.9525L7.53953 11.9021Z" fill="#393939"/>
<path d="M12.2499 4.67257C12.2499 3.54348 11.8835 2.54405 11.3035 1.66689L11.1844 1.49342L11.1524 1.44247C11.0065 1.18367 11.0774 0.850922 11.3253 0.675874C11.5733 0.50082 11.9106 0.545536 12.1056 0.769768L12.1428 0.816715L12.2819 1.0211C12.9644 2.05384 13.4224 3.27345 13.4224 4.67257C13.4224 4.99634 13.1599 5.25882 12.8361 5.25882C12.5123 5.25882 12.2499 4.99634 12.2499 4.67257Z" fill="#393939"/>
<path d="M9.93083 4.65941C9.93083 3.8821 9.62223 3.13662 9.07262 2.58693C8.52289 2.03721 7.777 1.72816 6.99958 1.72816C6.22221 1.72821 5.47676 2.03725 4.92708 2.58693C4.37741 3.13664 4.06832 3.88203 4.06832 4.65941L4.06602 4.91361C4.04093 6.15933 3.83006 7.04979 3.50153 7.74526C3.15537 8.47801 2.69602 8.95106 2.31013 9.34941L11.6896 9.34941C11.3029 8.95082 10.8441 8.47754 10.4982 7.74526C10.1476 7.00324 9.93083 6.03951 9.93083 4.65941ZM11.1033 4.65941C11.1033 5.91674 11.3002 6.69892 11.5579 7.24431C11.7516 7.65433 11.9903 7.95549 12.262 8.2502L12.5443 8.54678L12.5569 8.5605C12.7098 8.72858 12.8108 8.93734 12.8472 9.16164C12.8835 9.38582 12.8543 9.61575 12.7625 9.82346C12.6705 10.0312 12.52 10.2079 12.3296 10.3319C12.163 10.4403 11.9717 10.5048 11.7743 10.519L11.6896 10.5219L2.30957 10.5219C2.08232 10.5217 1.85981 10.4554 1.6695 10.3313C1.47918 10.2071 1.32893 10.0302 1.23726 9.82228C1.14561 9.6144 1.1164 9.38418 1.15309 9.15994C1.1898 8.93576 1.29086 8.72717 1.44393 8.55933L1.45595 8.54619L1.7382 8.2502C2.00953 7.9556 2.24755 7.65433 2.44124 7.24431C2.68277 6.73298 2.87094 6.01359 2.89352 4.88956L2.89582 4.65941C2.89582 3.57103 3.32848 2.52696 4.09809 1.75736C4.86763 0.98793 5.91132 0.555705 6.99958 0.555664C8.08789 0.555664 9.132 0.987806 9.90163 1.75736C10.6712 2.52696 11.1033 3.57103 11.1033 4.65941Z" fill="#393939"/>
<path d="M0.577148 4.67263C0.577148 3.18024 1.09791 1.89175 1.85671 0.81678C2.04344 0.552321 2.40976 0.489241 2.67425 0.67594C2.93871 0.862672 3.00179 1.229 2.81509 1.49349C2.16692 2.41175 1.74965 3.46831 1.74965 4.67263C1.74965 4.99641 1.48717 5.25888 1.1634 5.25888C0.839624 5.25888 0.577148 4.99641 0.577148 4.67263Z" fill="#393939"/>
</g>
<defs>
<clipPath id="clip0_136_1964">
<rect width="14" height="14" fill="white"/>
</clipPath>
</defs>
</svg>
