<svg width="20" height="20" viewBox="0 0 20 20" fill="none" xmlns="http://www.w3.org/2000/svg">
<path d="M7.5 3.33009L7.5 1.67009C7.5 1.2117 7.87161 0.840088 8.33 0.840088C8.78841 0.840088 9.16 1.2117 9.16 1.67009V3.33009C9.16 3.78848 8.78841 4.16009 8.33 4.16009C7.87161 4.16009 7.5 3.78848 7.5 3.33009Z" fill="#FF5724"/>
<path d="M10.8398 3.33009V1.67009C10.8398 1.2117 11.2114 0.840088 11.6698 0.840088C12.1283 0.840088 12.4998 1.2117 12.4998 1.67009V3.33009C12.4998 3.78848 12.1283 4.16009 11.6698 4.16009C11.2114 4.16009 10.8398 3.78848 10.8398 3.33009Z" fill="#FF5724"/>
<path d="M1.70508 14.155L1.70508 7.51498C1.70508 7.07472 1.88009 6.65262 2.19141 6.34131C2.50272 6.03 2.92482 5.85498 3.36508 5.85498L14.9851 5.85498L15.1909 5.85984C16.2166 5.91075 17.1896 6.34119 17.9193 7.0708C18.6975 7.84908 19.1351 8.90432 19.1351 10.005C19.1351 11.1056 18.6975 12.1609 17.9193 12.9392C17.1896 13.6688 16.2166 14.0992 15.1909 14.1501L14.9851 14.155C14.9851 15.2556 14.5475 16.3109 13.7693 17.0892C12.991 17.8674 11.9357 18.305 10.8351 18.305H5.85508C4.75443 18.305 3.69918 17.8674 2.9209 17.0892C2.14262 16.3109 1.70508 15.2556 1.70508 14.155ZM3.36508 14.155C3.36508 14.8153 3.62761 15.4485 4.09457 15.9155C4.56154 16.3825 5.19469 16.645 5.85508 16.645H10.8351C11.4954 16.645 12.1286 16.3825 12.5956 15.9155C13.0626 15.4485 13.3251 14.8153 13.3251 14.155L13.3251 7.51498L3.36508 7.51498L3.36508 14.155ZM14.9851 12.495L15.2315 12.4829C15.8014 12.4262 16.3371 12.174 16.7456 11.7655C17.2125 11.2985 17.4751 10.6653 17.4751 10.005C17.4751 9.34463 17.2125 8.71143 16.7456 8.24448C16.3371 7.83595 15.8014 7.5838 15.2315 7.52714L14.9851 7.51498L14.9851 12.495Z" fill="#FF5724"/>
<path d="M4.16992 3.33009L4.16992 1.67009C4.16992 1.2117 4.54153 0.840088 4.99992 0.840088C5.45831 0.840088 5.82992 1.2117 5.82992 1.67009L5.82992 3.33009C5.82992 3.78848 5.45831 4.16009 4.99992 4.16009C4.54153 4.16009 4.16992 3.78848 4.16992 3.33009Z" fill="#FF5724"/>
</svg>
