<svg width="35" height="34" viewBox="0 0 35 34" fill="none" xmlns="http://www.w3.org/2000/svg">
<g clip-path="url(#clip0_136_4257)">
<path d="M34.1562 19.7618V19.1446C34.1562 17.477 32.8967 16.0989 31.2791 15.9097V14.2974H31.5259C32.4706 14.2974 33.2393 13.5288 33.2393 12.584C33.2393 7.62852 29.2078 3.59692 24.2523 3.59692H11.1593C6.20383 3.59692 2.17223 7.62846 2.17223 12.584C2.17223 13.5287 2.94087 14.2974 3.88568 14.2974H3.9092V15.8903C2.18012 15.9668 0.796875 17.397 0.796875 19.1446V19.7618C0.796875 21.2499 1.80013 22.5072 3.16546 22.8953C2.56492 23.3235 2.17223 24.0251 2.17223 24.8171V25.7453C2.17223 28.5638 4.46523 30.8568 7.28371 30.8568H28.1279C30.9464 30.8568 33.2394 28.5638 33.2394 25.7453V24.8171C33.2394 23.9584 32.7781 23.2056 32.0904 22.7929C33.2987 22.316 34.1562 21.1375 34.1562 19.7618ZM11.1593 5.55164H24.2524C28.0493 5.55164 31.1531 8.57634 31.2806 12.3428H4.13099C4.25856 8.57627 7.36235 5.55164 11.1593 5.55164ZM29.3245 14.2974V15.8867H12.783C12.6551 15.8867 12.528 15.8852 12.2658 16.0348L8.49305 18.388L5.86385 16.3805V14.2974H29.3245ZM31.2847 25.7453C31.2847 27.486 29.8685 28.9021 28.1278 28.9021H7.28371C5.54303 28.9021 4.12688 27.486 4.12688 25.7453V24.8171C4.12688 24.594 4.30841 24.4108 4.5315 24.4108C4.5313 24.4108 4.5657 24.4108 4.5657 24.4108L7.35994 26.4482C8.36717 27.1827 9.70656 27.3383 10.8554 26.8543L12.7288 26.0651C13.1288 25.8965 13.5877 25.8965 13.9879 26.0651L16.2057 26.9994C16.6469 27.1853 17.1206 27.2783 17.5942 27.2782C18.0678 27.2782 18.5416 27.1852 18.9827 26.9994L21.2006 26.0651C21.6007 25.8964 22.0596 25.8965 22.4597 26.0651L24.3331 26.8543C25.4819 27.3383 26.8212 27.1827 27.8286 26.4482L30.6569 24.3859C30.6569 24.3859 30.881 24.3859 30.8801 24.3859C31.1032 24.3842 31.2847 24.594 31.2847 24.8171L31.2847 25.7453ZM5.97566 23.0197H29.2127L26.6768 24.8688C26.22 25.2018 25.6127 25.2723 25.0919 25.0529L23.2185 24.2637C22.3361 23.8919 21.324 23.8919 20.4416 24.2637L18.2236 25.198C17.8235 25.3665 17.3646 25.3665 16.9645 25.198L14.7467 24.2637C14.3055 24.0778 13.8319 23.9849 13.3582 23.9849C12.8846 23.9849 12.4108 24.0779 11.9697 24.2637L10.0964 25.0529C9.57547 25.2723 8.96816 25.2018 8.51143 24.8688L5.97566 23.0197ZM32.2016 19.7618C32.2016 20.4804 31.617 21.0651 30.8983 21.0651H4.05482C3.33616 21.0651 2.75153 20.4804 2.75153 19.7618V19.1446C2.75153 18.426 3.33616 17.7585 4.05482 17.7585H4.44771L7.84391 20.3517C8.01833 20.4849 8.22735 20.5522 8.43708 20.5522C8.616 20.5522 8.79544 20.5032 8.95422 20.4041L13.0628 17.8413H30.8983C31.617 17.8413 32.2016 18.426 32.2016 19.1446V19.7618Z" fill="url(#paint0_linear_136_4257)"/>
</g>
<defs>
<linearGradient id="paint0_linear_136_4257" x1="17.4766" y1="3.59692" x2="17.4766" y2="30.8568" gradientUnits="userSpaceOnUse">
<stop stop-color="#FFE8EE"/>
<stop offset="1" stop-color="#62BA9B"/>
</linearGradient>
<clipPath id="clip0_136_4257">
<rect width="33.3594" height="33.3594" fill="white" transform="translate(0.796875 0.547119)"/>
</clipPath>
</defs>
</svg>
