<svg width="34" height="34" viewBox="0 0 34 34" fill="none" xmlns="http://www.w3.org/2000/svg">
<g clip-path="url(#clip0_136_4252)">
<path d="M31.1003 3.37037C27.3661 -0.35806 21.2899 -0.358256 17.5554 3.37037C15.3048 5.61737 14.3208 8.8245 14.923 11.9493C14.9967 12.332 14.8776 12.7233 14.6044 12.9961L14.0817 13.5179C13.8695 13.7298 13.59 13.8506 13.2947 13.8581C12.2187 13.8852 11.2222 14.335 10.4889 15.1244C9.25428 16.4534 9.11048 18.4747 10.0684 19.9633L6.8324 23.1942C6.17381 22.7548 5.40042 22.519 4.59061 22.519C4.58775 22.519 4.58488 22.519 4.58208 22.519C3.49783 22.5213 2.48018 22.9459 1.71643 23.7148C0.97731 24.4588 0.562142 25.4504 0.547287 26.5069C0.532431 27.5639 0.920039 28.5666 1.6387 29.3303C2.24646 29.9762 3.03432 30.396 3.88707 30.545C4.03653 31.3967 4.45724 32.1835 5.1041 32.7903C5.85455 33.4942 6.83514 33.8798 7.87136 33.8798C7.89084 33.8798 7.91039 33.8797 7.92981 33.8794C8.98701 33.8646 9.97932 33.4504 10.724 32.7129C11.4945 31.9498 11.92 30.933 11.9223 29.8494C11.9239 29.0379 11.688 28.2628 11.2472 27.603L14.4827 24.3726C15.1182 24.7831 15.8624 25.0046 16.6337 25.0046C16.6475 25.0046 16.6614 25.0046 16.6752 25.0044C17.6654 24.9943 18.6075 24.6213 19.328 23.954C20.1191 23.2214 20.5697 22.2257 20.5969 21.1506C20.6043 20.8566 20.7252 20.5783 20.937 20.3667L21.4596 19.8449C21.7335 19.5715 22.1268 19.4525 22.5111 19.5262C25.6397 20.1273 28.8505 19.1449 31.1004 16.8984C32.9098 15.0919 33.9063 12.6897 33.9063 10.1345C33.9063 7.57926 32.9098 5.17705 31.1003 3.37037ZM9.22548 26.8595C9.0351 27.0495 8.9315 27.3098 8.93906 27.5787C8.94668 27.8477 9.06481 28.1016 9.26568 28.2806C9.29767 28.3092 9.32764 28.3374 9.35488 28.3646C9.75115 28.7602 9.96877 29.2862 9.9676 29.8455C9.96642 30.4048 9.74659 30.9299 9.34862 31.324C8.55718 32.1078 7.25304 32.1261 6.44134 31.3647C5.97972 30.9317 5.74105 30.3215 5.7864 29.6905C5.8068 29.4076 5.70333 29.1299 5.50278 28.9293C5.30224 28.7288 5.02396 28.625 4.74164 28.6455C4.10892 28.6907 3.49633 28.4523 3.06214 27.991C2.3008 27.1819 2.31918 25.8816 3.10299 25.0925C3.49816 24.6948 4.02481 24.4751 4.58599 24.4739H4.59035C5.1499 24.4739 5.6757 24.6913 6.07152 25.0865C6.09895 25.1139 6.12703 25.1436 6.15492 25.1749C6.33383 25.3753 6.58742 25.4932 6.85592 25.5009C7.12618 25.5099 7.38439 25.4053 7.57445 25.2155L11.5011 21.295C11.8826 21.5033 12.2958 21.6467 12.7268 21.7191C12.7993 22.1486 12.9426 22.5602 13.1505 22.9405L9.22548 26.8595ZM29.7192 15.5153C28.2749 16.9573 26.333 17.7449 24.3285 17.7448C23.8473 17.7448 23.3622 17.6993 22.8798 17.6067C21.8583 17.4104 20.8111 17.7301 20.0785 18.4617L19.5559 18.9835C18.9874 19.5511 18.6632 20.3031 18.6429 21.101C18.6291 21.6447 18.4007 22.1486 17.9998 22.5198C17.2495 23.2147 16.0641 23.227 15.3012 22.5475C14.8211 22.12 14.5782 21.5089 14.6348 20.8707C14.6603 20.5826 14.557 20.298 14.3524 20.0935C14.1683 19.9093 13.9194 19.8071 13.6614 19.8071C13.6328 19.8071 13.604 19.8083 13.5752 19.8109C12.9357 19.8675 12.322 19.6248 11.8934 19.1449C11.2141 18.3843 11.2263 17.2027 11.9211 16.4547C12.2933 16.0541 12.7988 15.8259 13.3443 15.812C14.1423 15.7919 14.8949 15.4684 15.463 14.9011L15.9856 14.3793C16.719 13.6471 17.0393 12.6004 16.8425 11.5794C16.3633 9.09287 17.1462 6.54114 18.9367 4.75348C21.9097 1.78528 26.7467 1.78535 29.7194 4.75348C31.1588 6.191 31.9516 8.10193 31.9516 10.1344C31.9516 12.167 31.1588 14.0779 29.7192 15.5153Z" fill="url(#paint0_linear_136_4252)"/>
</g>
<defs>
<linearGradient id="paint0_linear_136_4252" x1="17.2266" y1="0.573975" x2="17.2266" y2="33.8798" gradientUnits="userSpaceOnUse">
<stop stop-color="#FFE8EE"/>
<stop offset="1" stop-color="#62BA9B"/>
</linearGradient>
<clipPath id="clip0_136_4252">
<rect width="33.3594" height="33.3594" fill="white" transform="translate(0.546875 0.547119)"/>
</clipPath>
</defs>
</svg>
