<svg width="14" height="14" viewBox="0 0 14 14" fill="none" xmlns="http://www.w3.org/2000/svg">
<g clip-path="url(#clip0_136_1990)">
<path d="M5.998 0.627615C7.36414 0.412395 8.76064 0.642612 9.98268 1.27971L10.2243 1.41253L10.2747 1.44459C10.5159 1.61823 10.5911 1.94992 10.4395 2.2129C10.2878 2.47586 9.96292 2.5769 9.69184 2.45507L9.63861 2.42759L9.44052 2.31939C8.44079 1.7982 7.2983 1.60977 6.18067 1.7858C4.98854 1.97362 3.89663 2.56455 3.08738 3.45982C2.27814 4.35514 1.80018 5.50097 1.73339 6.70593C1.66663 7.91096 2.01501 9.10281 2.7204 10.082C3.42579 11.0612 4.4458 11.7692 5.60986 12.0875C6.7739 12.4059 8.01212 12.3156 9.11761 11.8316C10.2232 11.3477 11.1296 10.499 11.6853 9.42765C12.2063 8.42335 12.3897 7.27998 12.212 6.16663L12.1714 5.9445L12.1628 5.885C12.1333 5.58944 12.3315 5.3136 12.6288 5.25292C12.9264 5.1923 13.2172 5.36872 13.3055 5.65253L13.3204 5.71036L13.3697 5.98173C13.5868 7.34265 13.3625 8.73998 12.7256 9.96753C12.0463 11.2769 10.9389 12.3142 9.58767 12.9056C8.23654 13.4971 6.72342 13.6073 5.3007 13.2182C3.87793 12.8291 2.63103 11.9642 1.76889 10.7673C0.906763 9.57046 0.48103 8.11404 0.562611 6.64126C0.644217 5.16846 1.22865 3.76807 2.21774 2.67377C3.20682 1.57953 4.54099 0.857173 5.998 0.627615Z" fill="#8C8D8B"/>
<path d="M12.4801 1.86421C12.7103 1.6764 13.0498 1.68964 13.2644 1.90428C13.4791 2.11892 13.4923 2.45836 13.3045 2.68862L13.2644 2.73328L7.40191 8.59576C7.18729 8.81038 6.84785 8.82363 6.61763 8.63586L6.57296 8.59576L4.81419 6.83701L4.77412 6.79239C4.58631 6.56212 4.59956 6.22268 4.81419 6.00805C5.02883 5.79339 5.36827 5.78015 5.59853 5.96795L5.64319 6.00805L6.98743 7.35226L12.4355 1.90428L12.4801 1.86421Z" fill="#8C8D8B"/>
</g>
<defs>
<clipPath id="clip0_136_1990">
<rect width="14" height="14" fill="white"/>
</clipPath>
</defs>
</svg>
