<svg width="20" height="20" viewBox="0 0 20 20" fill="none" xmlns="http://www.w3.org/2000/svg">
<g clip-path="url(#clip0_136_3013)">
<path d="M17.4701 10.0001C17.4701 5.87455 14.1257 2.53012 10.0001 2.53012C5.87455 2.53012 2.53012 5.87455 2.53012 10.0001C2.53012 14.1257 5.87455 17.4701 10.0001 17.4701C14.1257 17.4701 17.4701 14.1257 17.4701 10.0001ZM19.1301 10.0001C19.1301 15.0424 15.0424 19.1301 10.0001 19.1301C4.95776 19.1301 0.870117 15.0424 0.870117 10.0001C0.870117 4.95776 4.95776 0.870117 10.0001 0.870117C15.0424 0.870117 19.1301 4.95776 19.1301 10.0001Z" fill="#636AE8"/>
<path d="M9.17969 5.01018C9.17969 4.55178 9.55128 4.18018 10.0097 4.18018C10.4681 4.18018 10.8397 4.55178 10.8397 5.01018L10.8397 9.47707L13.7009 10.9077L13.7747 10.9498C14.1301 11.1751 14.2644 11.6371 14.0721 12.0214C13.88 12.4058 13.4296 12.5759 13.0363 12.4266L12.9584 12.3926L9.63843 10.7326C9.35731 10.592 9.17969 10.3046 9.17969 9.99018L9.17969 5.01018Z" fill="#636AE8"/>
</g>
<defs>
<clipPath id="clip0_136_3013">
<rect width="20" height="20" fill="white"/>
</clipPath>
</defs>
</svg>
