<svg width="20" height="20" viewBox="0 0 20 20" fill="none" xmlns="http://www.w3.org/2000/svg">
<g clip-path="url(#clip0_136_3209)">
<path d="M17.4701 10.0001C17.4701 5.87455 14.1257 2.53012 10.0001 2.53012C5.87455 2.53012 2.53012 5.87455 2.53012 10.0001C2.53012 14.1257 5.87455 17.4701 10.0001 17.4701C14.1257 17.4701 17.4701 14.1257 17.4701 10.0001ZM19.1301 10.0001C19.1301 15.0424 15.0424 19.1301 10.0001 19.1301C4.95776 19.1301 0.870117 15.0424 0.870117 10.0001C0.870117 4.95776 4.95776 0.870117 10.0001 0.870117C15.0424 0.870117 19.1301 4.95776 19.1301 10.0001Z" fill="#8C8D8B"/>
<path d="M13.3206 9.17017C13.779 9.17017 14.1506 9.54176 14.1506 10.0002C14.1506 10.4586 13.779 10.8302 13.3206 10.8302L6.68059 10.8302C6.22219 10.8302 5.85059 10.4586 5.85059 10.0002C5.85059 9.54176 6.22219 9.17017 6.68059 9.17017L13.3206 9.17017Z" fill="#8C8D8B"/>
</g>
<defs>
<clipPath id="clip0_136_3209">
<rect width="20" height="20" fill="white"/>
</clipPath>
</defs>
</svg>
