<svg width="24" height="25" viewBox="0 0 24 25" fill="none" xmlns="http://www.w3.org/2000/svg">
<path d="M20 12.3927C20 10.5827 16.24 8.40766 11.993 8.39266C7.775 8.37766 4 10.5707 4 12.3927C4 14.2177 7.754 16.3987 11.997 16.3927C16.252 16.3867 20 14.2127 20 12.3927ZM12 18.3927C6.958 18.3997 2 15.7067 2 12.3927C2 9.07866 6.984 6.37566 12 6.39266C17.016 6.40966 22 9.07866 22 12.3927C22 15.7067 17.042 18.3857 12 18.3927ZM12 16.3927C10.9391 16.3927 9.92172 15.9712 9.17157 15.2211C8.42143 14.4709 8 13.4535 8 12.3927C8 11.3318 8.42143 10.3144 9.17157 9.56423C9.92172 8.81409 10.9391 8.39266 12 8.39266C13.0609 8.39266 14.0783 8.81409 14.8284 9.56423C15.5786 10.3144 16 11.3318 16 12.3927C16 13.4535 15.5786 14.4709 14.8284 15.2211C14.0783 15.9712 13.0609 16.3927 12 16.3927ZM12 14.3927C12.5304 14.3927 13.0391 14.1819 13.4142 13.8069C13.7893 13.4318 14 12.9231 14 12.3927C14 11.8622 13.7893 11.3535 13.4142 10.9784C13.0391 10.6034 12.5304 10.3927 12 10.3927C11.4696 10.3927 10.9609 10.6034 10.5858 10.9784C10.2107 11.3535 10 11.8622 10 12.3927C10 12.9231 10.2107 13.4318 10.5858 13.8069C10.9609 14.1819 11.4696 14.3927 12 14.3927Z" fill="#697077"/>
</svg>
