<svg width="29" height="29" viewBox="0 0 29 29" fill="none" xmlns="http://www.w3.org/2000/svg">
<path d="M9.96875 1.8125C10.2091 1.8125 10.4396 1.90798 10.6096 2.07793C10.7795 2.24789 10.875 2.4784 10.875 2.71875L17.6719 5.4375C18.0887 5.60969 18.0887 6.18062 17.6719 6.34375L10.875 9.0625V19.9801C12.4383 20.1314 13.5938 20.6634 13.5938 21.2969C13.5938 22.0473 11.9716 22.6562 9.96875 22.6562C7.96594 22.6562 6.34375 22.0473 6.34375 21.2969C6.34375 20.6634 7.49922 20.1314 9.0625 19.9801V2.71875C9.0625 2.4784 9.15798 2.24789 9.32793 2.07793C9.49789 1.90798 9.7284 1.8125 9.96875 1.8125ZM19.4844 22.8828C19.905 22.8828 20.3084 22.7157 20.6058 22.4183C20.9032 22.1209 21.0703 21.7175 21.0703 21.2969C21.0703 20.8763 20.9032 20.4729 20.6058 20.1754C20.3084 19.878 19.905 19.7109 19.4844 19.7109C19.0638 19.7109 18.6604 19.878 18.3629 20.1754C18.0655 20.4729 17.8984 20.8763 17.8984 21.2969C17.8984 21.7175 18.0655 22.1209 18.3629 22.4183C18.6604 22.7157 19.0638 22.8828 19.4844 22.8828Z" fill="black"/>
<path d="M14.5 17.2188C13.5629 17.2188 12.6522 17.2641 11.7812 17.3483V15.5268C12.6603 15.4479 13.5711 15.4062 14.5 15.4062C18.096 15.4062 21.3947 16.0288 23.828 17.0719C25.0433 17.593 26.0846 18.2365 26.8359 18.9968C27.5899 19.7617 28.0938 20.6924 28.0938 21.75C28.0938 22.8076 27.5899 23.7383 26.8359 24.5032C26.0846 25.2644 25.0433 25.9079 23.828 26.4281C21.3947 27.4703 18.096 28.0938 14.5 28.0938C10.904 28.0938 7.60525 27.4712 5.17197 26.4281C3.95669 25.907 2.91541 25.2635 2.16412 24.5032C1.41013 23.7383 0.90625 22.8076 0.90625 21.75C0.90625 20.6924 1.41013 19.7617 2.16412 18.9968C2.91541 18.2356 3.95669 17.5921 5.17197 17.0719C6.06009 16.6913 7.06422 16.366 8.15625 16.1077V17.9746C7.3225 18.1921 6.56125 18.4485 5.88519 18.7385C4.80494 19.2007 3.98841 19.73 3.45463 20.2701C2.92537 20.8066 2.71875 21.3059 2.71875 21.75C2.71875 22.1941 2.92537 22.6934 3.45463 23.2299C3.98841 23.77 4.80494 24.2993 5.88519 24.7615C8.04387 25.6877 11.0889 26.2812 14.5 26.2812C17.9111 26.2812 20.9561 25.6868 23.1148 24.7615C24.1951 24.2993 25.0116 23.77 25.5454 23.2299C26.0746 22.6934 26.2812 22.1941 26.2812 21.75C26.2812 21.3059 26.0746 20.8066 25.5454 20.2701C25.0125 19.73 24.1951 19.2007 23.1148 18.7385C20.9561 17.8133 17.9111 17.2188 14.5 17.2188Z" fill="black"/>
</svg>
