<svg width="24" height="25" viewBox="0 0 24 25" fill="none" xmlns="http://www.w3.org/2000/svg">
<path d="M11.808 14.9663L8.09302 10.5083C7.9957 10.3914 7.93369 10.2493 7.91427 10.0985C7.89485 9.94766 7.91881 9.79443 7.98335 9.65674C8.04789 9.51906 8.15033 9.40262 8.27868 9.32107C8.40702 9.23951 8.55595 9.19623 8.70802 9.19629H15.292C15.444 9.19642 15.5928 9.23984 15.721 9.32147C15.8492 9.40309 15.9515 9.51954 16.0159 9.65719C16.0803 9.79484 16.1042 9.948 16.0847 10.0987C16.0653 10.2494 16.0033 10.3915 15.906 10.5083L12.192 14.9663C12.1686 14.9944 12.1392 15.0171 12.106 15.0326C12.0728 15.0481 12.0366 15.0562 12 15.0562C11.9634 15.0562 11.9272 15.0481 11.894 15.0326C11.8608 15.0171 11.8315 14.9944 11.808 14.9663Z" fill="black"/>
</svg>
