<svg width="33" height="26" viewBox="0 0 33 26" fill="none" xmlns="http://www.w3.org/2000/svg">
<g clip-path="url(#clip0_136_4668)">
<path d="M21.129 18.225H12.4082V2.6499H21.129V18.225Z" fill="#FF5F00"/>
<path d="M12.9615 10.4376C12.9615 7.27815 14.4501 4.46377 16.7681 2.65009C15.073 1.32382 12.9336 0.532227 10.6086 0.532227C5.1044 0.532227 0.642578 4.96695 0.642578 10.4376C0.642578 15.9083 5.1044 20.343 10.6086 20.343C12.9336 20.343 15.073 19.5514 16.7681 18.2251C14.4501 16.4114 12.9615 13.5971 12.9615 10.4376Z" fill="#EB001B"/>
<path d="M32.8942 10.4376C32.8942 15.9083 28.4324 20.343 22.9282 20.343C20.6032 20.343 18.4638 19.5514 16.7681 18.2251C19.0868 16.4114 20.5753 13.5971 20.5753 10.4376C20.5753 7.27815 19.0868 4.46377 16.7681 2.65009C18.4638 1.32382 20.6032 0.532227 22.9282 0.532227C28.4324 0.532227 32.8942 4.96695 32.8942 10.4376Z" fill="#F79E1B"/>
</g>
<defs>
<clipPath id="clip0_136_4668">
<rect width="32.2517" height="25" fill="white" transform="translate(0.642578 0.532227)"/>
</clipPath>
</defs>
</svg>
