<svg width="24" height="24" viewBox="0 0 24 24" fill="none" xmlns="http://www.w3.org/2000/svg">
<path d="M6.23424 16.925C6.99518 14.3991 8.36963 12.1008 10.2349 10.2353C12.1002 8.36985 14.3984 6.99518 16.9242 6.23401M11.0002 15L11.3542 15.354M15.0002 11L15.3542 11.354M16.0002 16L16.3542 16.354M7.58224 7.58001C9.641 5.52172 12.1505 3.97082 14.9122 3.05001C15.4482 2.87001 16.0152 3.18601 16.1772 3.72801L20.9562 19.656C21.0105 19.8363 21.0149 20.0279 20.9689 20.2105C20.9229 20.3931 20.8284 20.5598 20.6952 20.693C20.5621 20.8261 20.3954 20.9207 20.2128 20.9667C20.0302 21.0126 19.8385 21.0082 19.6582 20.954L3.73024 16.176C3.18824 16.014 2.87224 15.447 3.05124 14.91C3.97205 12.1483 5.52396 9.63876 7.58224 7.58001Z" stroke="#013221" stroke-width="2" stroke-linecap="round" stroke-linejoin="round"/>
</svg>
