<svg width="28" height="28" viewBox="0 0 28 28" fill="none" xmlns="http://www.w3.org/2000/svg">
<path d="M10.8281 16.5513C6.78128 17.0973 3.86401 18.6198 3.86401 20.4164C3.86401 22.6716 8.4517 24.4998 14.112 24.4998C19.7723 24.4998 24.36 22.6716 24.36 20.4164C24.36 18.6198 21.4427 17.0973 17.3959 16.5513" stroke="#013221" stroke-width="1.5" stroke-linecap="round" stroke-linejoin="round"/>
<path fill-rule="evenodd" clip-rule="evenodd" d="M20.944 9.13866C20.944 5.38083 17.8856 2.3335 14.112 2.3335C10.3385 2.3335 7.28003 5.38083 7.28003 9.13866C7.28003 14.2428 14.112 19.8335 14.112 19.8335C14.112 19.8335 20.944 14.2428 20.944 9.13866Z" stroke="#013221" stroke-width="1.5" stroke-linecap="round" stroke-linejoin="round"/>
<path d="M15.7224 7.68342C16.6118 8.59464 16.6118 10.072 15.7224 10.9833C14.8331 11.8945 13.3911 11.8945 12.5018 10.9833C11.6124 10.072 11.6124 8.59464 12.5018 7.68342C13.3911 6.77219 14.8331 6.77219 15.7224 7.68342Z" stroke="#013221" stroke-width="1.5" stroke-linecap="round" stroke-linejoin="round"/>
</svg>
