<svg width="34" height="34" viewBox="0 0 34 34" fill="none" xmlns="http://www.w3.org/2000/svg">
<g clip-path="url(#clip0_136_4247)">
<path d="M19.8227 17.4223C21.8818 17.4223 23.557 15.7553 23.557 13.7062C23.557 11.6572 21.8818 9.99017 19.8227 9.99017C17.7636 9.99017 16.0884 11.6572 16.0884 13.7062C16.0884 15.7553 17.7636 17.4223 19.8227 17.4223ZM19.8227 11.9448C20.804 11.9448 21.6023 12.735 21.6023 13.7062C21.6023 14.6775 20.804 15.4676 19.8227 15.4676C18.8414 15.4676 18.0431 14.6775 18.0431 13.7062C18.0431 12.735 18.8414 11.9448 19.8227 11.9448Z" fill="url(#paint0_linear_136_4247)"/>
<path d="M33.4573 5.31868C33.1664 4.45447 32.5194 3.75151 31.6824 3.39003C27.3756 1.53018 22.2903 0.547119 16.9763 0.547119C11.6623 0.547119 6.57704 1.53018 2.2701 3.39003C1.43318 3.75151 0.78626 4.45447 0.495343 5.31862C0.20384 6.18459 0.29421 7.13775 0.743388 7.93375L14.6267 32.5373C15.1104 33.3947 15.9888 33.9065 16.9763 33.9065C17.9638 33.9065 18.8422 33.3947 19.326 32.5374L33.2092 7.93381C33.6583 7.13781 33.7488 6.18466 33.4573 5.31868ZM7.57724 15.3237C7.57724 14.0379 8.63321 12.9917 9.93116 12.9917C11.2292 12.9917 12.2851 14.0379 12.2851 15.3237C12.2851 16.6095 11.2292 17.6557 9.93116 17.6557C8.63321 17.6557 7.57724 16.6095 7.57724 15.3237ZM19.0697 25.9955C17.7717 25.9955 16.7157 24.9494 16.7157 23.6635C16.7157 22.3777 17.7717 21.3316 19.0697 21.3316C20.3676 21.3316 21.4236 22.3777 21.4236 23.6635C21.4236 24.9494 20.3676 25.9955 19.0697 25.9955ZM23.0349 21.9872C22.3777 20.4543 20.8478 19.3769 19.0697 19.3769C16.6939 19.3769 14.761 21.2999 14.761 23.6635C14.761 26.0272 16.6939 27.9502 19.0697 27.9502C19.2824 27.9502 19.4914 27.9341 19.6959 27.9043L17.6236 31.5768C17.4327 31.9153 17.1073 31.9518 16.9763 31.9518C16.8453 31.9518 16.52 31.9153 16.3289 31.5768L9.56727 19.5939C9.68735 19.6039 9.80854 19.6103 9.93116 19.6103C12.307 19.6103 14.2398 17.6873 14.2398 15.3237C14.2398 12.9601 12.307 11.0371 9.93116 11.0371C8.24658 11.0371 6.78567 12.0044 6.07763 13.4097L4.56988 10.7377C8.07867 8.95525 12.4418 7.98111 16.9763 7.98111C21.5108 7.98111 25.874 8.95525 29.3827 10.7377L23.0349 21.9872ZM31.5069 6.97316L30.3437 9.0346C26.5491 7.09012 21.8454 6.0264 16.9763 6.0264C12.1071 6.0264 7.4036 7.09018 3.60891 9.03467L2.44576 6.97323C2.266 6.65475 2.23127 6.28865 2.3479 5.94228C2.46387 5.59774 2.71146 5.32865 3.04505 5.18459C7.10929 3.42945 11.9266 2.50177 16.9763 2.50177C22.026 2.50177 26.8434 3.42945 30.9076 5.18453C31.2412 5.32859 31.4888 5.59768 31.6048 5.94222C31.7213 6.28858 31.6866 6.65475 31.5069 6.97316Z" fill="url(#paint1_linear_136_4247)"/>
</g>
<defs>
<linearGradient id="paint0_linear_136_4247" x1="16.9763" y1="0.547119" x2="16.9763" y2="33.9065" gradientUnits="userSpaceOnUse">
<stop stop-color="#FFE8EE"/>
<stop offset="1" stop-color="#62BA9B"/>
</linearGradient>
<linearGradient id="paint1_linear_136_4247" x1="16.9763" y1="0.547119" x2="16.9763" y2="33.9065" gradientUnits="userSpaceOnUse">
<stop stop-color="#FFE8EE"/>
<stop offset="1" stop-color="#62BA9B"/>
</linearGradient>
<clipPath id="clip0_136_4247">
<rect width="33.3594" height="33.3594" fill="white" transform="translate(0.296875 0.547119)"/>
</clipPath>
</defs>
</svg>
