<svg width="20" height="20" viewBox="0 0 20 20" fill="none" xmlns="http://www.w3.org/2000/svg">
<path d="M13.0382 0.919568C13.2506 0.842773 13.4869 0.855384 13.6915 0.957665L14.9803 1.60204L16.269 0.957665L16.368 0.916323C16.602 0.834962 16.8624 0.86195 17.0764 0.994136C17.321 1.14537 17.4703 1.41246 17.4703 1.70013L17.4703 18.3001C17.4703 18.5878 17.321 18.8549 17.0764 19.0061C16.8317 19.1573 16.5262 19.1712 16.269 19.0426L14.9803 18.3982L13.6915 19.0426C13.4578 19.1594 13.1827 19.1594 12.949 19.0426L11.6603 18.3982L10.3715 19.0426C10.1378 19.1594 9.86274 19.1594 9.62901 19.0426L8.34027 18.3982L7.05151 19.0426C6.84695 19.1449 6.61066 19.1575 6.39821 19.0806L6.30904 19.0426L5.02027 18.3982L3.73151 19.0426C3.47427 19.1712 3.16887 19.1573 2.9242 19.0061C2.6795 18.8549 2.53027 18.5878 2.53027 18.3001L2.53027 1.70013L2.53676 1.59313C2.56867 1.34731 2.71015 1.12643 2.9242 0.994136C3.16887 0.843011 3.47427 0.829049 3.73151 0.957665L5.02027 1.60204L6.30904 0.957665L6.39821 0.919568C6.61066 0.842773 6.84695 0.855384 7.05151 0.957665L8.34027 1.60204L9.62901 0.957665L9.71824 0.919568C9.93064 0.842773 10.1669 0.855384 10.3715 0.957665L11.6603 1.60204L12.949 0.957665L13.0382 0.919568ZM12.0315 3.27259C11.8269 3.37487 11.5906 3.38747 11.3782 3.31068L11.289 3.27259L10.0003 2.6282L8.71153 3.27259C8.50694 3.37487 8.27066 3.38747 8.05821 3.31068L7.96904 3.27259L6.68027 2.6282L5.39151 3.27259C5.18695 3.37487 4.95066 3.38747 4.73821 3.31068L4.64904 3.27259L4.19027 3.0432L4.19027 16.957L4.64904 16.7277L4.73821 16.6896C4.95066 16.6128 5.18695 16.6253 5.39151 16.7277L6.68027 17.372L7.96904 16.7277L8.05821 16.6896C8.27066 16.6128 8.50694 16.6253 8.71153 16.7277L10.0003 17.372L11.289 16.7277L11.3782 16.6896C11.5906 16.6128 11.8269 16.6253 12.0315 16.7277L13.3203 17.372L14.609 16.7277L14.6982 16.6896C14.9106 16.6128 15.1469 16.6253 15.3515 16.7277L15.8103 16.957L15.8103 3.0432L15.3515 3.27259C15.1469 3.37487 14.9106 3.38747 14.6982 3.31068L14.609 3.27259L13.3203 2.6282L12.0315 3.27259Z" fill="#013221"/>
<path d="M11.6606 5.84009C12.119 5.84009 12.4906 6.2117 12.4906 6.67009C12.4906 7.12848 12.119 7.50009 11.6606 7.50009L6.68059 7.50009C6.22219 7.50009 5.85059 7.12848 5.85059 6.67009C5.85059 6.2117 6.22219 5.84009 6.68059 5.84009L11.6606 5.84009Z" fill="#013221"/>
<path d="M13.3206 9.17017C13.779 9.17017 14.1506 9.54176 14.1506 10.0002C14.1506 10.4586 13.779 10.8302 13.3206 10.8302L6.68059 10.8302C6.22219 10.8302 5.85059 10.4586 5.85059 10.0002C5.85059 9.54176 6.22219 9.17017 6.68059 9.17017L13.3206 9.17017Z" fill="#013221"/>
<path d="M10.8257 12.5C11.2841 12.5 11.6557 12.8716 11.6557 13.33C11.6557 13.7884 11.2841 14.16 10.8257 14.16L6.6757 14.16C6.21731 14.16 5.8457 13.7884 5.8457 13.33C5.8457 12.8716 6.21731 12.5 6.6757 12.5L10.8257 12.5Z" fill="#013221"/>
</svg>
