<svg width="20" height="20" viewBox="0 0 20 20" fill="none" xmlns="http://www.w3.org/2000/svg">
<g clip-path="url(#clip0_136_3198)">
<path d="M8.58136 0.978143C10.5155 0.673438 12.4926 0.999374 14.2228 1.90136L14.5648 2.0894L14.6362 2.1348C14.9777 2.38063 15.0842 2.85023 14.8696 3.22255C14.6548 3.59484 14.1948 3.73789 13.811 3.56541L13.7357 3.52651L13.4552 3.37332C12.0398 2.63543 10.4223 2.36865 8.83998 2.61788C7.15219 2.88379 5.60628 3.72041 4.46056 4.98792C3.31487 6.25549 2.63817 7.87773 2.54362 9.58368C2.4491 11.2897 2.94233 12.9771 3.94101 14.3635C4.93967 15.7498 6.38378 16.7521 8.03184 17.2028C9.67986 17.6535 11.4329 17.5257 12.998 16.8405C14.5633 16.1554 15.8465 14.9538 16.6334 13.437C17.371 12.0152 17.6306 10.3964 17.379 8.82017L17.3215 8.50568L17.3094 8.42143C17.2676 8.00298 17.5483 7.61246 17.9692 7.52655C18.3904 7.44073 18.8021 7.6905 18.9272 8.09231L18.9483 8.17418L19.018 8.55838C19.3255 10.4851 19.0078 12.4635 18.1061 14.2014C17.1444 16.0551 15.5766 17.5237 13.6635 18.3611C11.7506 19.1985 9.6084 19.3544 7.59414 18.8037C5.5798 18.2528 3.81448 17.0282 2.59388 15.3338C1.3733 13.6392 0.770553 11.5773 0.886053 9.49213C1.00159 7.40697 1.82902 5.42433 3.22935 3.87504C4.62967 2.32585 6.51856 1.30315 8.58136 0.978143Z" fill="#242524"/>
<path d="M17.7915 2.70625C18.1175 2.44036 18.5981 2.45911 18.9019 2.76299C19.2059 3.06687 19.2246 3.54744 18.9587 3.87344L18.9019 3.93666L10.6019 12.2366C10.2981 12.5405 9.81749 12.5593 9.49155 12.2934L9.4283 12.2366L6.93828 9.74664L6.88154 9.68347C6.61565 9.35745 6.6344 8.87688 6.93828 8.57302C7.24215 8.26911 7.72273 8.25036 8.04873 8.51624L8.11195 8.57302L10.0151 10.4761L17.7283 2.76299L17.7915 2.70625Z" fill="#242524"/>
</g>
<defs>
<clipPath id="clip0_136_3198">
<rect width="20" height="20" fill="white"/>
</clipPath>
</defs>
</svg>
