<svg width="16" height="16" viewBox="0 0 16 16" fill="none" xmlns="http://www.w3.org/2000/svg">
<g clip-path="url(#clip0_136_2095)">
<path d="M3.99023 13.9999C3.99023 13.2598 4.59017 12.6599 5.33023 12.6599C6.0703 12.6599 6.67023 13.2598 6.67023 13.9999C6.67023 14.74 6.0703 15.3399 5.33023 15.3399C4.59017 15.3399 3.99023 14.74 3.99023 13.9999Z" fill="#8C8D8B"/>
<path d="M11.3301 13.9999C11.3301 13.2598 11.93 12.6599 12.6701 12.6599C13.4102 12.6599 14.0101 13.2598 14.0101 13.9999C14.0101 14.74 13.4102 15.3399 12.6701 15.3399C11.93 15.3399 11.3301 14.74 11.3301 13.9999Z" fill="#8C8D8B"/>
<path d="M2.67699 0.669922L2.73588 0.672535C3.02638 0.697995 3.26993 0.910324 3.33194 1.1999L3.93586 4.01992L14.7638 4.01992C14.967 4.01993 15.1594 4.11202 15.2866 4.27051C15.4138 4.429 15.4621 4.63682 15.4181 4.83517L14.3123 9.81308L14.3117 9.81241C14.2133 10.259 13.9664 10.6589 13.6103 10.9457C13.2985 11.1967 12.9198 11.3477 12.5235 11.3821L12.3527 11.3899L5.7993 11.3899C5.33705 11.3968 4.88642 11.2442 4.52342 10.9574C4.20239 10.7038 3.96757 10.3592 3.84819 9.97073L3.80435 9.80196L2.74308 4.84891C2.73966 4.83489 2.73643 4.82075 2.73392 4.80639L2.13524 2.00992L1.33699 2.00992C0.966965 2.00992 0.666992 1.70995 0.666992 1.33992C0.666992 0.969887 0.966965 0.669922 1.33699 0.669922L2.67699 0.669922ZM5.11425 9.52056L5.12864 9.57684C5.16841 9.70649 5.24729 9.82139 5.35438 9.90594C5.47662 10.0025 5.62854 10.0533 5.78425 10.0499L12.3508 10.0499C12.5031 10.0497 12.6508 9.99753 12.7695 9.90206C12.8883 9.80645 12.971 9.67278 13.0038 9.52384L13.0044 9.52257L13.9283 5.35992L4.2231 5.35992L5.11425 9.52056Z" fill="#8C8D8B"/>
</g>
<defs>
<clipPath id="clip0_136_2095">
<rect width="16" height="16" fill="white"/>
</clipPath>
</defs>
</svg>
