<svg width="34" height="34" viewBox="0 0 34 34" fill="none" xmlns="http://www.w3.org/2000/svg">
<path d="M32.4289 27.9774H31.3864V26.9349C31.3864 24.8741 30.4705 23.0233 29.0244 21.768C29.2946 20.9139 29.4318 20.0251 29.4318 19.1163C29.4318 14.2662 25.4859 10.3204 20.6359 10.3204C18.4766 10.3204 16.4369 11.0935 14.8311 12.508C14.1841 12.3558 13.51 12.275 12.8173 12.275C11.7897 12.275 10.8028 12.4524 9.88528 12.7777V10.3204H12.8173C14.4125 10.3204 15.8315 9.5518 16.7239 8.36572H30.4743C32.091 8.36572 33.4062 7.05044 33.4062 5.43375C33.4062 3.81705 32.091 2.50177 30.4743 2.50177H16.7239C15.8315 1.31569 14.4125 0.547119 12.8173 0.547119C11.6396 0.547119 2.46523 0.547119 1.0242 0.547119C0.484456 0.547119 0.046875 0.9847 0.046875 1.52444C0.046875 2.06419 0.484456 2.50177 1.0242 2.50177H4.02133V4.45642H1.0242C0.484456 4.45642 0.046875 4.894 0.046875 5.43375C0.046875 5.97349 0.484456 6.41107 1.0242 6.41107H4.02133V8.36572H1.0242C0.484456 8.36572 0.046875 8.8033 0.046875 9.34305C0.046875 9.88279 0.484456 10.3204 1.0242 10.3204H4.02133V22.1523C2.81297 23.3867 2.06668 25.0752 2.06668 26.9349V27.9774H1.0242C0.484456 27.9774 0.046875 28.415 0.046875 28.9547C0.046875 30.2598 0.552413 31.4957 1.47032 32.4348C2.39799 33.3838 3.62793 33.9065 4.9335 33.9065H28.5196C29.8252 33.9065 31.0551 33.3838 31.9828 32.4348C32.9007 31.4957 33.4062 30.2598 33.4062 28.9547C33.4062 28.415 32.9687 27.9774 32.4289 27.9774ZM17.6056 4.45642H30.4743C31.0132 4.45642 31.4516 4.89485 31.4516 5.43375C31.4516 5.97264 31.0132 6.41107 30.4743 6.41107H17.6056C17.6699 6.0952 17.7039 5.76838 17.7039 5.43375C17.7039 5.09911 17.6699 4.77229 17.6056 4.45642ZM13.7946 2.66987C14.9321 3.07331 15.7492 4.15964 15.7492 5.43375C15.7492 6.70785 14.9321 7.79418 13.7946 8.19762V2.66987ZM9.88528 2.50177H11.8399V8.36572H9.88528V2.50177ZM29.4318 26.9349V27.9774H27.4771V26.9349C27.4771 25.3182 26.1619 24.0029 24.5452 24.0029H21.6132V22.0483C22.6616 22.0483 23.5136 22.0483 24.5452 22.0483C27.2397 22.0483 29.4318 24.2404 29.4318 26.9349ZM21.6132 25.9576H24.5452C25.0841 25.9576 25.5225 26.396 25.5225 26.9349V27.9774H21.6132V25.9576ZM21.5586 20.0936C21.4012 18.6761 20.9057 17.3593 20.1545 16.2257C20.313 16.1993 20.4736 16.1843 20.6359 16.1843C22.2526 16.1843 23.5678 17.4996 23.5678 19.1163C23.5678 19.4507 23.5096 19.7813 23.399 20.0936H21.5586ZM20.6359 12.275C24.4081 12.275 27.4771 15.344 27.4771 19.1163C27.4771 19.6459 27.4172 20.1664 27.2993 20.6732C26.7088 20.4124 26.0749 20.2325 25.4115 20.1483C25.4845 19.8105 25.5225 19.4646 25.5225 19.1163C25.5225 16.4218 23.3304 14.2297 20.6359 14.2297C19.9917 14.2297 19.3582 14.3571 18.7694 14.6009C18.232 14.1062 17.6333 13.6772 16.9858 13.3273C18.068 12.642 19.3236 12.275 20.6359 12.275ZM12.8173 14.2297C16.5895 14.2297 19.6585 17.2987 19.6585 21.071V27.9774H17.7039V21.071C17.7039 18.3765 15.5117 16.1843 12.8173 16.1843C10.4371 16.1843 8.45018 17.8952 8.01859 20.1514C7.29948 20.2451 6.61515 20.4511 5.98367 20.751C6.15138 17.1267 9.15223 14.2297 12.8173 14.2297ZM12.8173 20.0936H10.0534C10.4568 18.9562 11.5432 18.139 12.8173 18.139C14.434 18.139 15.7492 19.4543 15.7492 21.071V27.9774H13.7946C13.7946 26.5457 13.7946 22.3167 13.7946 21.071C13.7946 20.5312 13.357 20.0936 12.8173 20.0936ZM5.97598 2.50177H7.93063V9.34305C7.93063 9.88195 7.49221 10.3204 6.95331 10.3204C6.41441 10.3204 5.97598 9.88195 5.97598 9.34305V2.50177ZM5.97598 12.1069C6.28189 12.2154 6.61072 12.275 6.95331 12.275C7.29589 12.275 7.62473 12.2154 7.93063 12.1069V13.7608C7.19269 14.2556 6.53338 14.8591 5.97598 15.5482V12.1069ZM4.02133 26.9349C4.02133 24.2404 6.21347 22.0483 8.90796 22.0483H11.8399V24.0029H8.90796C7.29127 24.0029 5.97598 25.3182 5.97598 26.9349V27.9774H4.02133V26.9349ZM11.8399 25.9576C11.8399 26.6697 11.8399 27.2686 11.8399 27.9774H7.93063V26.9349C7.93063 26.396 8.36906 25.9576 8.90796 25.9576H11.8399ZM28.5196 31.9518H4.9335C3.67712 31.9518 2.57482 31.0874 2.16819 29.9255C3.18389 29.9255 29.8951 29.9255 31.285 29.9255C30.8783 31.0874 29.776 31.9518 28.5196 31.9518Z" fill="url(#paint0_linear_136_4262)"/>
<defs>
<linearGradient id="paint0_linear_136_4262" x1="16.7266" y1="0.547119" x2="16.7266" y2="33.9065" gradientUnits="userSpaceOnUse">
<stop stop-color="#FFE8EE"/>
<stop offset="1" stop-color="#62BA9B"/>
</linearGradient>
</defs>
</svg>
