<svg width="16" height="16" viewBox="0 0 16 16" fill="none" xmlns="http://www.w3.org/2000/svg">
<g clip-path="url(#clip0_136_1820)">
<path d="M0.629883 7.44506L0.629883 2.63988C0.629883 2.1068 0.841804 1.5957 1.21875 1.21875C1.5957 0.841804 2.1068 0.629883 2.63988 0.629883L7.44506 0.629883L7.64398 0.639698C8.104 0.685473 8.53642 0.888972 8.86619 1.21875L14.6992 7.05183L14.7771 7.13424C15.1556 7.55474 15.3666 8.10146 15.3666 8.66988L15.364 8.78305C15.3361 9.34819 15.0999 9.88473 14.6992 10.2879L10.2879 14.6992C9.88473 15.0999 9.34819 15.3361 8.78305 15.364L8.66988 15.3666C8.0636 15.3666 7.48184 15.1265 7.05183 14.6992L1.21875 8.86619C0.888972 8.53642 0.685473 8.104 0.639698 7.64398L0.629883 7.44506ZM1.96988 7.44506L1.97315 7.51112C1.9884 7.66448 2.05621 7.8088 2.16617 7.91875L7.9966 13.7492L8.06662 13.812C8.23633 13.9502 8.44912 14.0266 8.66988 14.0266L8.76408 14.022C8.98177 14.0005 9.18659 13.9047 9.34317 13.7492L13.7505 9.34183C13.9052 9.18545 14.0005 8.98116 14.022 8.76408L14.0266 8.66988C14.0266 8.41823 13.9274 8.17676 13.7505 7.99794L7.91875 2.16617C7.8088 2.05621 7.66448 1.9884 7.51112 1.97315L7.44506 1.96988L2.63988 1.96988C2.46219 1.96988 2.29182 2.04052 2.16617 2.16617C2.04052 2.29182 1.96988 2.46219 1.96988 2.63988L1.96988 7.44506Z" fill="#E8618C"/>
<path d="M5.00004 5.33479C5.18505 5.33479 5.33504 5.18481 5.33504 4.99979C5.33504 4.81478 5.18505 4.66479 5.00004 4.66479C4.81503 4.66479 4.66504 4.81478 4.66504 4.99979C4.66504 5.18481 4.81503 5.33479 5.00004 5.33479Z" fill="#E8618C"/>
<path d="M5.00012 4.66487C4.8151 4.66487 4.66512 4.81486 4.66512 4.99987C4.66512 5.18489 4.8151 5.33487 5.00012 5.33487C5.18513 5.33487 5.33512 5.18489 5.33512 4.99987C5.33512 4.81486 5.18513 4.66487 5.00012 4.66487ZM6.00512 4.99987C6.00512 5.55492 5.55517 6.00487 5.00012 6.00487C4.44507 6.00487 3.99512 5.55492 3.99512 4.99987C3.99512 4.44482 4.44507 3.99487 5.00012 3.99487C5.55517 3.99487 6.00512 4.44482 6.00512 4.99987Z" fill="#E8618C"/>
</g>
<defs>
<clipPath id="clip0_136_1820">
<rect width="16" height="16" fill="white"/>
</clipPath>
</defs>
</svg>
