<svg width="16" height="16" viewBox="0 0 16 16" fill="none" xmlns="http://www.w3.org/2000/svg">
<path d="M1.32031 6.00478L1.32031 1.31478C1.32031 0.944748 1.62028 0.644775 1.99031 0.644775C2.36034 0.644775 2.66031 0.944748 2.66031 1.31478L2.66031 6.00478C2.66031 6.37175 2.96334 6.67478 3.33031 6.67478H6.01031C6.18801 6.67478 6.35837 6.60414 6.48402 6.47849C6.60967 6.35283 6.68031 6.18247 6.68031 6.00478L6.68031 1.31478C6.68031 0.944748 6.98027 0.644775 7.35031 0.644775C7.72035 0.644775 8.02031 0.944748 8.02031 1.31478V6.00478C8.02031 6.53786 7.80839 7.04897 7.43145 7.42591C7.05451 7.80286 6.5434 8.01478 6.01031 8.01478H3.33031C2.22328 8.01478 1.32031 7.11182 1.32031 6.00478Z" fill="#8C8D8B"/>
<path d="M4 14.6999L4 1.29988C4 0.929855 4.29997 0.629883 4.67 0.629883C5.04003 0.629883 5.34 0.929855 5.34 1.29988L5.34 14.6999C5.34 15.0699 5.04003 15.3699 4.67 15.3699C4.29997 15.3699 4 15.0699 4 14.6999Z" fill="#8C8D8B"/>
<path d="M13.3354 14.6999V10.6799H11.9954C10.8883 10.6799 9.98535 9.77692 9.98535 8.66988V4.64988C9.98535 3.58371 10.4092 2.56151 11.1631 1.80762C11.917 1.05372 12.9392 0.629883 14.0054 0.629883C14.183 0.629883 14.3534 0.700521 14.479 0.826173C14.6047 0.951824 14.6754 1.12219 14.6754 1.29988L14.6754 14.6999C14.6754 15.0699 14.3754 15.3699 14.0054 15.3699C13.6353 15.3699 13.3354 15.0699 13.3354 14.6999ZM11.3254 8.66988C11.3254 9.03684 11.6284 9.33988 11.9954 9.33988H13.3354L13.3354 2.0556C12.8758 2.1743 12.4519 2.41368 12.1105 2.75504C11.6079 3.25764 11.3254 3.9391 11.3254 4.64988L11.3254 8.66988Z" fill="#8C8D8B"/>
</svg>
