<svg width="32" height="32" viewBox="0 0 32 32" fill="none" xmlns="http://www.w3.org/2000/svg">
<path fill-rule="evenodd" clip-rule="evenodd" d="M6.66674 12.0001C6.66674 9.52473 7.65007 7.15076 9.40041 5.40042C11.1507 3.65008 13.5247 2.66675 16.0001 2.66675C18.4754 2.66675 20.8494 3.65008 22.5997 5.40042C24.3501 7.15076 25.3334 9.52473 25.3334 12.0001V17.0187L27.7627 21.8774C27.8746 22.101 27.9274 22.3495 27.9161 22.5993C27.9049 22.8491 27.83 23.0919 27.6985 23.3045C27.5671 23.5172 27.3834 23.6928 27.165 23.8145C26.9467 23.9362 26.7008 24.0001 26.4507 24.0001H21.1654C20.8688 25.1444 20.2006 26.1578 19.2658 26.8813C18.3309 27.6048 17.1822 27.9973 16.0001 27.9973C14.8179 27.9973 13.6693 27.6048 12.7344 26.8813C11.7995 26.1578 11.1313 25.1444 10.8347 24.0001H5.5494C5.29937 24.0001 5.05349 23.9362 4.83509 23.8145C4.6167 23.6928 4.43305 23.5172 4.3016 23.3045C4.17014 23.0919 4.09524 22.8491 4.084 22.5993C4.07277 22.3495 4.12557 22.101 4.2374 21.8774L6.66674 17.0187V12.0001ZM13.6907 24.0001C13.9248 24.4054 14.2614 24.742 14.6668 24.9761C15.0722 25.2101 15.532 25.3333 16.0001 25.3333C16.4681 25.3333 16.928 25.2101 17.3333 24.9761C17.7387 24.742 18.0753 24.4054 18.3094 24.0001H13.6907ZM16.0001 5.33341C14.232 5.33341 12.5363 6.03579 11.286 7.28604C10.0358 8.53628 9.3334 10.232 9.3334 12.0001V17.0187C9.33337 17.4325 9.23706 17.8406 9.05207 18.2107L7.49207 21.3334H24.5094L22.9494 18.2107C22.764 17.8407 22.6672 17.4326 22.6667 17.0187V12.0001C22.6667 10.232 21.9644 8.53628 20.7141 7.28604C19.4639 6.03579 17.7682 5.33341 16.0001 5.33341Z" fill="white"/>
</svg>
